<svg width="93" height="114" viewBox="0 0 93 114" fill="none" xmlns="http://www.w3.org/2000/svg">
<path d="M1.48658 31.2931L31.6794 1.25662L71.7127 12.476M1.48658 31.2931L42.6526 42.209M1.48658 31.2931L20.6896 102.96L61.3984 112.169M71.7127 12.476L42.6526 42.209M71.7127 12.476L91.373 85.8491L61.3984 112.169M42.6526 42.209L61.3984 112.169M53.8152 54.419L55.3393 60.1068L74.3352 40.386L72.9635 35.2669L53.8152 54.419ZM58.2182 70.8512L59.7423 76.539L78.7382 56.8182L77.3665 51.6991L58.2182 70.8512ZM62.6646 87.4453L64.1887 93.1331L83.1845 73.4123L81.8129 68.2932L62.6646 87.4453ZM39.0904 58.3645L40.6144 64.0523L14.3031 56.4715L12.9315 51.3525L39.0904 58.3645ZM43.9532 76.5128L45.4773 82.2007L19.166 74.6199L17.7943 69.5008L43.9532 76.5128ZM47.9398 91.3908L49.4638 97.0786L23.1525 89.4978L21.7809 84.3788L47.9398 91.3908Z" stroke="#EFEEF0" stroke-width="2"/>
</svg>
