<svg width="118" height="36" viewBox="0 0 118 36" fill="none" xmlns="http://www.w3.org/2000/svg">
<path d="M42.8689 16.4492C41.9846 16.4492 41.1002 16.3608 40.2159 16.0955C39.3315 15.8302 38.7125 15.4765 38.1819 15.1227L39.0662 13.5309C39.5968 13.8846 40.1275 14.1499 40.8349 14.4152C41.5424 14.5921 42.2499 14.769 42.9574 14.769C44.7261 14.769 45.6104 14.2384 45.6104 13.2656C45.6104 12.9118 45.522 12.6465 45.2567 12.4697C44.9914 12.2928 44.7261 12.1159 44.3723 12.0275C44.0186 11.9391 43.488 11.8506 42.8689 11.6738C41.9846 11.4969 41.1887 11.4085 40.6581 11.1431C40.1275 10.9663 39.5968 10.6125 39.1547 10.1704C38.7125 9.72819 38.5356 9.10914 38.5356 8.31322C38.5356 7.252 38.9778 6.45609 39.7737 5.83704C40.6581 5.218 41.8077 4.86426 43.2227 4.86426C43.9302 4.86426 44.7261 4.95269 45.4336 5.12956C46.2295 5.30643 46.7601 5.57174 47.2907 5.83704L46.4063 7.42887C45.522 6.80983 44.3723 6.54452 43.1342 6.54452C42.2499 6.54452 41.6309 6.72139 41.1887 6.9867C40.7465 7.252 40.4812 7.69418 40.4812 8.13635C40.4812 8.49009 40.5696 8.84383 40.8349 9.0207C41.1002 9.19757 41.3655 9.37444 41.8077 9.46288C42.1615 9.55131 42.6921 9.63975 43.3996 9.81662C44.2839 9.99349 45.0798 10.1704 45.6104 10.3472C46.141 10.5241 46.6716 10.7894 47.0254 11.2316C47.3791 11.6738 47.6444 12.2928 47.6444 13.0003C47.6444 14.0615 47.2023 14.8574 46.3179 15.4765C45.522 16.1839 44.3723 16.4492 42.8689 16.4492Z" fill="#F9F8FA"/>
<path d="M50.2973 4.95236H52.3313V16.3605H50.2973V4.95236ZM51.2701 2.74149C50.9164 2.74149 50.5627 2.65305 50.2973 2.38775C50.032 2.12244 49.9436 1.85714 49.9436 1.41496C49.9436 1.06122 50.032 0.70748 50.2973 0.442175C50.5627 0.17687 50.9164 0 51.2701 0C51.6239 0 51.9776 0.0884347 52.2429 0.35374C52.5082 0.619045 52.6851 0.88435 52.6851 1.23809C52.6851 1.59183 52.5082 1.94557 52.2429 2.21088C52.066 2.65305 51.7123 2.74149 51.2701 2.74149Z" fill="#F9F8FA"/>
<path d="M70.8148 4.86426C72.2298 4.86426 73.3795 5.30643 74.1754 6.10235C74.9713 6.89826 75.4135 8.13635 75.4135 9.81662V16.3608H73.3795V10.0819C73.3795 9.02071 73.1141 8.13636 72.5835 7.60574C72.0529 7.07513 71.3454 6.80983 70.4611 6.80983C69.3999 6.80983 68.604 7.16357 67.9849 7.78261C67.3659 8.40166 67.1006 9.37445 67.1006 10.6125V16.4493H65.0666V10.1704C65.0666 9.10914 64.8013 8.22479 64.2706 7.69418C63.74 7.16357 63.0325 6.89826 62.1482 6.89826C61.087 6.89826 60.2911 7.252 59.672 7.87105C59.053 8.49009 58.7877 9.46288 58.7877 10.701V16.5377H56.7537V4.95269H58.6992V6.63296C59.1414 6.01391 59.672 5.57174 60.2911 5.30643C60.9985 4.95269 61.706 4.86426 62.5904 4.86426C63.4747 4.86426 64.2706 5.04113 64.8897 5.39487C65.5972 5.74861 66.1278 6.27922 66.4815 6.9867C66.9237 6.36765 67.4543 5.83704 68.2502 5.4833C68.9577 5.04113 69.8421 4.86426 70.8148 4.86426Z" fill="#F9F8FA"/>
<path d="M84.1678 4.86426C85.229 4.86426 86.2018 5.12956 87.0862 5.57174C87.9705 6.10235 88.5896 6.72139 89.1202 7.60574C89.6508 8.4901 89.8277 9.46288 89.8277 10.6125C89.8277 11.7622 89.5624 12.735 89.1202 13.6193C88.678 14.5037 87.9705 15.2112 87.0862 15.6533C86.2018 16.1839 85.229 16.3608 84.1678 16.3608C83.3719 16.3608 82.576 16.1839 81.9569 15.9186C81.2495 15.5649 80.7189 15.1227 80.2767 14.5037V20.4288H78.2427V4.95269H80.1882V6.72139C80.6304 6.10235 81.2495 5.66017 81.8685 5.30643C82.576 5.04113 83.2835 4.86426 84.1678 4.86426ZM83.991 14.6805C84.6984 14.6805 85.3175 14.5037 85.9365 14.1499C86.5556 13.7962 86.9977 13.354 87.263 12.735C87.6168 12.1159 87.7937 11.4085 87.7937 10.6125C87.7937 9.81662 87.6168 9.10914 87.263 8.4901C86.9093 7.87105 86.4671 7.42887 85.9365 7.07513C85.4059 6.72139 84.6984 6.54452 83.991 6.54452C83.2835 6.54452 82.6644 6.72139 82.0454 7.07513C81.5148 7.42887 80.9842 7.87105 80.7189 8.4901C80.3651 9.10914 80.1882 9.81662 80.1882 10.6125C80.1882 11.4085 80.3651 12.1159 80.7189 12.735C81.0726 13.354 81.5148 13.7962 82.0454 14.1499C82.576 14.5037 83.2835 14.6805 83.991 14.6805Z" fill="#F9F8FA"/>
<path d="M93.1011 0.441895H95.1351V16.3602H93.1011V0.441895Z" fill="#F9F8FA"/>
<path d="M109.638 10.7005C109.638 10.8774 109.638 11.0543 109.638 11.3196H100.441C100.529 12.2924 100.971 13.0883 101.767 13.7073C102.475 14.3264 103.447 14.5917 104.597 14.5917C105.924 14.5917 107.073 14.1495 107.869 13.1767L109.019 14.5032C108.488 15.1223 107.869 15.5645 107.073 15.9182C106.366 16.2719 105.481 16.3604 104.509 16.3604C103.359 16.3604 102.298 16.0951 101.325 15.6529C100.441 15.1223 99.6448 14.4148 99.2026 13.5305C98.672 12.6461 98.4951 11.6733 98.4951 10.5237C98.4951 9.46245 98.7604 8.40123 99.2026 7.51688C99.7332 6.63253 100.352 5.92505 101.237 5.48287C102.121 4.95226 103.094 4.77539 104.155 4.77539C105.216 4.77539 106.189 5.0407 106.985 5.48287C107.869 6.01348 108.488 6.63253 108.93 7.51688C109.461 8.5781 109.638 9.55088 109.638 10.7005ZM104.067 6.54409C103.094 6.54409 102.298 6.8094 101.59 7.42844C100.971 8.04749 100.529 8.8434 100.441 9.81619H107.692C107.604 8.8434 107.162 8.04749 106.543 7.51688C105.924 6.89783 105.039 6.54409 104.067 6.54409Z" fill="#F9F8FA"/>
<path d="M56.3102 23.4353C57.7252 23.4353 58.8748 23.8775 59.6707 24.6734C60.5551 25.4693 60.9088 26.619 60.9088 28.2108V34.4013H58.8748V28.3877C58.8748 27.3265 58.6095 26.5305 58.0789 25.9999C57.5483 25.4693 56.8408 25.204 55.868 25.204C54.8068 25.204 53.9225 25.5578 53.3034 26.1768C52.6844 26.7958 52.3306 27.6802 52.3306 28.8299V34.4013H50.2966V19.1904H52.3306V25.0271C52.7728 24.4965 53.3034 24.1428 54.0109 23.7891C54.7184 23.6122 55.4259 23.4353 56.3102 23.4353Z" fill="#F9F8FA"/>
<path d="M69.5765 34.5778C68.4268 34.5778 67.454 34.3125 66.5697 33.8703C65.6853 33.4281 64.9778 32.7206 64.4472 31.9247C63.9166 31.0404 63.7397 30.156 63.7397 29.0948C63.7397 28.0336 64.0051 27.0608 64.4472 26.2649C64.9778 25.3805 65.6853 24.7615 66.5697 24.3193C67.454 23.8771 68.4268 23.6118 69.5765 23.6118C70.7261 23.6118 71.6989 23.8771 72.5833 24.3193C73.4676 24.7615 74.1751 25.469 74.6173 26.2649C75.1479 27.0608 75.4132 28.0336 75.4132 29.0948C75.4132 30.156 75.1479 31.1288 74.6173 31.9247C74.0866 32.7206 73.4676 33.4281 72.5833 33.8703C71.6989 34.3125 70.6377 34.5778 69.5765 34.5778ZM69.5765 32.8091C70.2839 32.8091 70.903 32.6322 71.522 32.3669C72.1411 32.0131 72.5833 31.571 72.8486 31.0404C73.2023 30.4213 73.2907 29.8023 73.2907 29.0064C73.2907 28.2989 73.1139 27.5914 72.8486 27.0608C72.4948 26.4417 72.0526 25.9996 71.522 25.7343C70.9914 25.3805 70.2839 25.2921 69.5765 25.2921C68.869 25.2921 68.2499 25.469 67.6309 25.7343C67.1003 26.088 66.6581 26.5302 66.3044 27.0608C65.9506 27.5914 65.8622 28.2989 65.8622 29.0064C65.8622 29.7138 66.0391 30.4213 66.3044 31.0404C66.6581 31.571 67.1003 32.1016 67.6309 32.3669C68.1615 32.6322 68.869 32.8091 69.5765 32.8091Z" fill="#F9F8FA"/>
<path d="M92.1266 23.4351C93.5416 23.4351 94.6028 23.7888 95.4871 24.5847C96.283 25.3806 96.7252 26.5303 96.7252 28.1221V34.401H94.6912V28.3874C94.6912 27.3262 94.4259 26.5303 93.8953 25.9997C93.3647 25.4691 92.6572 25.2038 91.7729 25.2038C90.7116 25.2038 89.9157 25.5575 89.2967 26.1765C88.6776 26.7956 88.4123 27.6799 88.4123 28.8296V34.401H86.3783V28.3874C86.3783 27.3262 86.113 26.5303 85.5824 25.9997C85.0518 25.4691 84.3443 25.2038 83.46 25.2038C82.3988 25.2038 81.6028 25.5575 80.9838 26.1765C80.3647 26.7956 80.0994 27.6799 80.0994 28.8296V34.401H78.0654V23.5235H80.011V25.1153C80.4532 24.5847 80.9838 24.1425 81.6028 23.8772C82.2219 23.6119 83.0178 23.4351 83.9021 23.4351C84.7865 23.4351 85.5824 23.6119 86.2015 23.9657C86.9089 24.3194 87.4395 24.7616 87.7933 25.4691C88.2355 24.85 88.7661 24.3194 89.562 23.9657C90.3579 23.6119 91.2423 23.4351 92.1266 23.4351Z" fill="#F9F8FA"/>
<path d="M109.637 29.0069C109.637 29.1838 109.637 29.3606 109.637 29.6259H100.528C100.616 30.5987 101.059 31.3946 101.855 31.9253C102.562 32.4559 103.535 32.8096 104.596 32.8096C105.923 32.8096 106.984 32.3674 107.868 31.4831L109.018 32.7212C108.487 33.2518 107.868 33.694 107.161 34.0477C106.453 34.313 105.569 34.4899 104.684 34.4899C103.535 34.4899 102.474 34.2246 101.501 33.7824C100.616 33.3402 99.909 32.6327 99.3784 31.8368C98.8478 30.9525 98.6709 30.0681 98.6709 29.0069C98.6709 27.9457 98.9362 26.9729 99.3784 26.177C99.909 25.2926 100.528 24.6736 101.412 24.2314C102.297 23.7892 103.27 23.5239 104.331 23.5239C105.392 23.5239 106.365 23.7892 107.161 24.2314C108.045 24.6736 108.664 25.3811 109.106 26.177C109.46 26.9729 109.637 27.9457 109.637 29.0069ZM104.154 25.1158C103.181 25.1158 102.385 25.3811 101.678 26.0001C101.059 26.5307 100.616 27.3266 100.528 28.211H107.691C107.603 27.3266 107.161 26.5307 106.542 26.0001C105.923 25.3811 105.127 25.1158 104.154 25.1158Z" fill="#F9F8FA"/>
<path d="M29.4227 29.2321V13.3361L15.6397 2.56445L1 13.3361V34.618H14.73" stroke="#E87F18" stroke-width="2" stroke-linecap="round" stroke-linejoin="round"/>
<path d="M13.5034 34.5947C14.2609 34.6469 14.4774 34.5947 14.9102 34.5947C17.9943 34.5947 20.6455 32.2977 20.8078 29.3221C20.916 26.1378 18.3189 23.5276 15.0725 23.5276C13.774 23.5276 12.6918 23.7886 11.772 24.4673C11.5556 24.6239 10.3653 25.5635 9.17494 25.5113C7.71407 25.4591 7.06479 24.0496 7.55175 23.0056C7.87639 22.3269 8.74209 21.7005 9.22904 21.3351C9.22904 21.3351 15.5054 17.1588 21.6735 21.7005C21.944 21.9093 22.3769 22.2225 22.7556 22.4314C23.2967 22.7968 24.7575 23.2666 25.5691 22.3269C26.4348 21.3873 25.8397 20.1344 25.1904 19.4558C25.1904 19.4558 15.2889 10.0592 4.84644 19.8212" stroke="#E87F18" stroke-width="2" stroke-linecap="round" stroke-linejoin="round"/>
<path d="M14.7831 30.1306C16.0488 30.1306 17.0268 29.243 17.0268 28.2074C17.0268 27.1225 15.9912 26.2842 14.7831 26.2842C13.5173 26.2842 12.5393 27.1718 12.5393 28.2074C12.5393 29.243 13.5749 30.1306 14.7831 30.1306Z" fill="#E87F18"/>
</svg>
